<svg width="53" height="20" viewBox="0 0 53 20" fill="none" xmlns="http://www.w3.org/2000/svg">
<path d="M2.4034 8.85673C2.4034 8.98791 2.33781 9.0535 2.20663 9.0535H0.665267C0.534088 9.0535 0.468498 8.98791 0.468498 8.85673V2.66787C0.468498 2.53669 0.534088 2.4711 0.665267 2.4711H4.82085C4.88331 2.4711 4.93172 2.48828 4.96608 2.52263C5.00044 2.55699 5.01762 2.6054 5.01762 2.66787V4.02183C5.01762 4.08429 5.00044 4.13271 4.96608 4.16706C4.93172 4.20142 4.88331 4.2186 4.82085 4.2186H2.4034V5.33831H4.16026C4.29144 5.33831 4.35703 5.4039 4.35703 5.53508V6.77191C4.35703 6.90309 4.29144 6.96868 4.16026 6.96868H2.4034V8.85673ZM7.57909 8.85673C7.57909 8.98791 7.51506 9.0535 7.38701 9.0535H5.96746C5.90499 9.0535 5.85658 9.03632 5.82222 9.00196C5.78787 8.96761 5.77069 8.91919 5.77069 8.85673V1.92764C5.77069 1.86517 5.78787 1.81676 5.82222 1.78241C5.85658 1.74805 5.90499 1.73087 5.96746 1.73087H7.38701C7.51506 1.73087 7.57909 1.79646 7.57909 1.92764V8.85673ZM11.4698 9.19873C10.9138 9.19873 10.4032 9.06755 9.93778 8.80519C9.47553 8.53971 9.1101 8.18209 8.84149 7.73233C8.57289 7.28257 8.43858 6.78909 8.43858 6.25188C8.43858 5.7053 8.57289 5.20557 8.84149 4.75268C9.11322 4.29668 9.48177 3.93594 9.94715 3.67045C10.4125 3.40497 10.9247 3.27223 11.4838 3.27223C12.046 3.27223 12.5598 3.40497 13.0252 3.67045C13.4937 3.93594 13.8638 4.29668 14.1355 4.75268C14.4073 5.20557 14.5431 5.7053 14.5431 6.25188C14.5431 6.78909 14.4057 7.28257 14.1308 7.73233C13.8591 8.18209 13.4874 8.53971 13.0158 8.80519C12.5473 9.06755 12.032 9.19873 11.4698 9.19873ZM11.4885 7.45592C11.7165 7.45592 11.9242 7.40282 12.1116 7.29663C12.299 7.19044 12.4458 7.0452 12.552 6.86093C12.6613 6.67353 12.716 6.46583 12.716 6.23782C12.716 6.0067 12.6613 5.799 12.552 5.61472C12.4458 5.42732 12.299 5.28053 12.1116 5.17433C11.9242 5.06814 11.7165 5.01504 11.4885 5.01504C11.2605 5.01504 11.0528 5.06814 10.8654 5.17433C10.6811 5.28053 10.5343 5.42732 10.425 5.61472C10.3188 5.799 10.2657 6.0067 10.2657 6.23782C10.2657 6.46583 10.3188 6.67353 10.425 6.86093C10.5343 7.0452 10.6811 7.19044 10.8654 7.29663C11.0528 7.40282 11.2605 7.45592 11.4885 7.45592ZM18.3656 3.27223C18.9028 3.27223 19.401 3.40341 19.8601 3.66577C20.3192 3.92813 20.6831 4.28575 20.9517 4.73863C21.2234 5.18839 21.3593 5.68031 21.3593 6.2144C21.3593 6.75161 21.225 7.24666 20.9564 7.69954C20.6878 8.15242 20.3239 8.51316 19.8648 8.78177C19.4057 9.04725 18.9059 9.17999 18.3656 9.17999C17.9377 9.17999 17.5566 9.10503 17.2224 8.95511V10.5199C17.2224 10.5824 17.2053 10.6308 17.1709 10.6651C17.1366 10.6995 17.0881 10.7167 17.0257 10.7167H15.5921C15.5296 10.7167 15.4812 10.6995 15.4468 10.6651C15.4125 10.6308 15.3953 10.5824 15.3953 10.5199V3.55801C15.3953 3.42996 15.4609 3.36593 15.5921 3.36593H16.6368C16.7399 3.36593 16.8164 3.41278 16.8664 3.50648L17.0351 3.65171C17.4067 3.39872 17.8502 3.27223 18.3656 3.27223ZM18.3328 7.43249C18.5608 7.43249 18.7654 7.38252 18.9465 7.28257C19.1308 7.18263 19.2745 7.04208 19.3775 6.86093C19.4806 6.67977 19.5321 6.47207 19.5321 6.23782C19.5321 6.0067 19.479 5.79744 19.3729 5.61004C19.2667 5.42264 19.1214 5.2774 18.9372 5.17433C18.7529 5.06814 18.5467 5.01504 18.3187 5.01504C18.0939 5.01504 17.8893 5.06814 17.705 5.17433C17.5207 5.28053 17.3755 5.42732 17.2693 5.61472C17.1631 5.799 17.11 6.0067 17.11 6.23782C17.11 6.46895 17.1631 6.67665 17.2693 6.86093C17.3786 7.04208 17.5254 7.18263 17.7097 7.28257C17.8971 7.38252 18.1048 7.43249 18.3328 7.43249ZM27.8502 8.89421C27.8127 9.0004 27.7378 9.0535 27.6253 9.0535H26.1964C26.084 9.0535 26.009 9.0004 25.9715 8.89421L23.9476 3.59081C23.9351 3.5627 23.9289 3.53459 23.9289 3.50648C23.9289 3.46275 23.9445 3.4284 23.9757 3.40341C24.007 3.37842 24.0507 3.36593 24.1069 3.36593H25.7138C25.8325 3.36593 25.9091 3.41903 25.9434 3.52522L26.9132 6.84687L27.8877 3.52522C27.9189 3.41903 27.9939 3.36593 28.1126 3.36593H29.7242C29.7773 3.36593 29.8195 3.37842 29.8507 3.40341C29.8819 3.42527 29.8975 3.45807 29.8975 3.50179C29.8975 3.53303 29.8913 3.5627 29.8788 3.59081L27.8502 8.89421ZM30.7859 2.81779C30.6579 2.81779 30.5939 2.7522 30.5939 2.62102V1.35139C30.5939 1.22021 30.6579 1.15462 30.7859 1.15462H32.2336C32.3648 1.15462 32.4304 1.22021 32.4304 1.35139V2.62102C32.4304 2.7522 32.3648 2.81779 32.2336 2.81779H30.7859ZM32.421 8.85673C32.421 8.91919 32.4038 8.96761 32.3695 9.00196C32.3351 9.03632 32.2867 9.0535 32.2242 9.0535H30.7906C30.7282 9.0535 30.6798 9.03632 30.6454 9.00196C30.611 8.96761 30.5939 8.91919 30.5939 8.85673V3.55801C30.5939 3.42996 30.6595 3.36593 30.7906 3.36593H32.2242C32.3554 3.36593 32.421 3.42996 32.421 3.55801V8.85673ZM37.4288 1.91359C37.4288 1.78553 37.4944 1.7215 37.6256 1.7215H39.0545C39.1857 1.7215 39.2513 1.78553 39.2513 1.91359V8.85673C39.2513 8.91919 39.2341 8.96761 39.1997 9.00196C39.1654 9.03632 39.117 9.0535 39.0545 9.0535H37.9676C37.8645 9.0535 37.788 9.00509 37.738 8.90826L37.5928 8.81456C37.2211 9.05818 36.7838 9.17999 36.281 9.17999C35.7407 9.17999 35.2409 9.04725 34.7818 8.78177C34.3227 8.51316 33.9588 8.15242 33.6902 7.69954C33.4216 7.24666 33.2873 6.75161 33.2873 6.2144C33.2873 5.68031 33.4216 5.18839 33.6902 4.73863C33.9619 4.28575 34.3274 3.92813 34.7865 3.66577C35.2456 3.40341 35.7438 3.27223 36.281 3.27223C36.509 3.27223 36.7151 3.29097 36.8994 3.32845C37.0868 3.36593 37.2633 3.42215 37.4288 3.49711V1.91359ZM36.3138 7.43249C36.5418 7.43249 36.7479 7.38252 36.9322 7.28257C37.1196 7.18263 37.2664 7.04208 37.3726 6.86093C37.4819 6.67665 37.5366 6.46895 37.5366 6.23782C37.5366 6.0067 37.4835 5.799 37.3773 5.61472C37.2711 5.42732 37.1258 5.28053 36.9416 5.17433C36.7573 5.06814 36.5527 5.01504 36.3278 5.01504C36.0998 5.01504 35.8937 5.06814 35.7094 5.17433C35.5251 5.2774 35.3799 5.42264 35.2737 5.61004C35.1675 5.79744 35.1144 6.0067 35.1144 6.23782C35.1144 6.47207 35.166 6.67977 35.269 6.86093C35.3721 7.04208 35.5142 7.18263 35.6954 7.28257C35.8796 7.38252 36.0858 7.43249 36.3138 7.43249ZM43.1059 9.19873C42.5249 9.19873 42.0065 9.06599 41.5505 8.80051C41.0976 8.5319 40.7446 8.17272 40.4917 7.72296C40.2387 7.27008 40.1122 6.7766 40.1122 6.24251C40.1122 5.7053 40.2324 5.21025 40.4729 4.75737C40.7165 4.30449 41.0554 3.94374 41.4896 3.67514C41.9268 3.40653 42.4234 3.27223 42.9794 3.27223C43.5853 3.27223 44.1069 3.39872 44.5442 3.65171C44.9846 3.9047 45.3203 4.25451 45.5514 4.70115C45.7826 5.14778 45.8981 5.65845 45.8981 6.23314C45.8981 6.39243 45.8903 6.5361 45.8747 6.66416C45.8622 6.78909 45.7935 6.85156 45.6686 6.85156H41.9908C42.1033 7.09205 42.2641 7.27477 42.4734 7.3997C42.6827 7.52151 42.9185 7.58241 43.1808 7.58241C43.3589 7.58241 43.5166 7.55899 43.654 7.51214C43.7946 7.46529 43.9351 7.39658 44.0757 7.306C44.1163 7.27477 44.1584 7.25915 44.2022 7.25915C44.2553 7.25915 44.3021 7.28882 44.3427 7.34816L45.022 8.31327C45.0501 8.35387 45.0642 8.39448 45.0642 8.43508C45.0642 8.49442 45.0376 8.5444 44.9846 8.585C44.7253 8.77865 44.438 8.93013 44.1225 9.03944C43.8071 9.14564 43.4682 9.19873 43.1059 9.19873ZM44.0944 5.53039C44.0038 5.29302 43.868 5.11655 43.6868 5.00099C43.5057 4.8823 43.2902 4.82296 43.0403 4.82296C42.7904 4.82296 42.5733 4.8823 42.3891 5.00099C42.2079 5.11967 42.0689 5.29614 41.9721 5.53039H44.0944ZM49.4151 9.19873C48.8591 9.19873 48.3485 9.06755 47.8831 8.80519C47.4209 8.53971 47.0554 8.18209 46.7868 7.73233C46.5182 7.28257 46.3839 6.78909 46.3839 6.25188C46.3839 5.7053 46.5182 5.20557 46.7868 4.75268C47.0586 4.29668 47.4271 3.93594 47.8925 3.67045C48.3579 3.40497 48.8701 3.27223 49.4292 3.27223C49.9914 3.27223 50.5051 3.40497 50.9705 3.67045C51.439 3.93594 51.8091 4.29668 52.0809 4.75268C52.3526 5.20557 52.4884 5.7053 52.4884 6.25188C52.4884 6.78909 52.351 7.28257 52.0762 7.73233C51.8044 8.18209 51.4328 8.53971 50.9611 8.80519C50.4926 9.06755 49.9773 9.19873 49.4151 9.19873ZM49.4338 7.45592C49.6618 7.45592 49.8695 7.40282 50.0569 7.29663C50.2443 7.19044 50.3911 7.0452 50.4973 6.86093C50.6066 6.67353 50.6613 6.46583 50.6613 6.23782C50.6613 6.0067 50.6066 5.799 50.4973 5.61472C50.3911 5.42732 50.2443 5.28053 50.0569 5.17433C49.8695 5.06814 49.6618 5.01504 49.4338 5.01504C49.2058 5.01504 48.9981 5.06814 48.8107 5.17433C48.6265 5.28053 48.4797 5.42732 48.3703 5.61472C48.2642 5.799 48.2111 6.0067 48.2111 6.23782C48.2111 6.46583 48.2642 6.67353 48.3703 6.86093C48.4797 7.0452 48.6265 7.19044 48.8107 7.29663C48.9981 7.40282 49.2058 7.45592 49.4338 7.45592Z" fill="white"/>
<path d="M39.8807 13.5852C39.6542 13.6201 39.7863 14.079 39.8807 14.3041C40.5343 15.8727 40.7521 17.0491 40.8175 17.7462C40.8828 18.4433 40.3164 18.5958 39.3143 18.6176C38.3122 18.6394 36.6129 18.3998 36.504 18.3998C36.3951 18.3998 36.2862 18.5958 36.3515 18.7701C36.4169 18.9444 37.8765 19.9465 39.4014 19.9465C40.9264 19.9465 40.9918 19.9029 41.6453 19.794C42.1682 19.7069 42.3134 19.4091 42.3207 19.2712C42.5167 17.3976 41.471 15.0884 40.665 14.1734C40.498 13.9628 40.1073 13.5504 39.8807 13.5852Z" fill="white"/>
<path d="M10.4935 19.0315C10.3661 19.1982 10.4282 19.3655 10.4935 19.4454C10.6852 19.6197 10.9656 19.518 11.0818 19.4454C16.7459 16.0687 21.0812 15.132 27.0503 14.9577C31.8256 14.8183 36.9117 16.6714 38.8579 17.6155C39.0176 17.6954 39.3894 17.7898 39.5986 17.5283C39.8077 17.2669 39.6567 16.9837 39.555 16.8748C34.9191 12.9534 28.3792 12.2519 24.4796 12.5177C16.8112 13.0406 11.06 18.2908 10.4935 19.0315Z" fill="white" stroke="white" stroke-width="0.0435703"/>
</svg>
